<svg width="25" height="25" viewBox="0 0 25 25" fill="none" xmlns="http://www.w3.org/2000/svg">
<path fill-rule="evenodd" clip-rule="evenodd" d="M12.0833 1.32764e-10C13.6701 -7.43804e-06 15.2414 0.312531 16.7074 0.919771C18.1734 1.52701 19.5055 2.41706 20.6275 3.5391C21.7496 4.66114 22.6396 5.9932 23.2469 7.45922C23.8541 8.92524 24.1667 10.4965 24.1667 12.0833C24.1667 18.7568 18.7568 24.1667 12.0833 24.1667C5.40992 24.1667 0 18.7568 0 12.0833C0 5.40992 5.40992 1.32764e-10 12.0833 1.32764e-10ZM13.2917 13.2917H10.875C7.88353 13.2917 5.31527 15.1034 4.20755 17.6897C5.96024 20.1474 8.83464 21.75 12.0833 21.75C15.332 21.75 18.2064 20.1474 19.9591 17.6895C18.8514 15.1034 16.2832 13.2917 13.2917 13.2917ZM12.0833 3.625C10.0813 3.625 8.45831 5.24798 8.45831 7.25C8.45831 9.25202 10.0813 10.875 12.0833 10.875C14.0853 10.875 15.7083 9.25202 15.7083 7.25C15.7083 5.24798 14.0854 3.625 12.0833 3.625Z" fill="#D9D9D9"/>
</svg>
