<svg width="14" height="14" viewBox="0 0 14 14" fill="none" xmlns="http://www.w3.org/2000/svg">
<path d="M14 9.33334H0V10.885H14V9.33334Z" fill="#4393F5"/>
<path d="M14 12.4483H0V14H14V12.4483Z" fill="#4393F5"/>
<path d="M14 10.885H0V12.4367H14V10.885Z" fill="white"/>
<path d="M0 0V7.78167H7.53846H14V6.21833H7.53846V4.66667H14V3.115H7.53846V1.55167H14V0H0Z" fill="#4393F5"/>
<path d="M14.0001 1.55167H7.53857V3.10333H14.0001V1.55167Z" fill="white"/>
<path d="M14.0001 4.66666H7.53857V6.21832H14.0001V4.66666Z" fill="white"/>
<path d="M4.49077 3.115V0H3.04769V3.115H0V4.66667H3.04769V7.78167H0V9.33333H14V7.78167H4.49077V4.66667H7.53846V3.115H4.49077Z" fill="white"/>
</svg>
