<svg width="1440" height="81" viewBox="0 0 1440 81" fill="none" xmlns="http://www.w3.org/2000/svg">
<path d="M-3 16.8842V82.8842H171V16.8842C157 17.3842 147 18.032 130 10.8603C94.5 -4.1158 72.5 -3.11585 38 10.8603C22.4071 17.1771 4 16.7175 -3 16.8842Z" fill="white" fill-opacity="0.08"/>
<path d="M171 16.8842V82.8842H345V16.8842C331 17.3842 321 18.032 304 10.8603C268.5 -4.1158 246.5 -3.11585 212 10.8603C196.407 17.1771 178 16.7175 171 16.8842Z" fill="white" fill-opacity="0.08"/>
<path d="M345 16.8842V82.8842H519V16.8842C505 17.3842 495 18.032 478 10.8603C442.5 -4.1158 420.5 -3.11585 386 10.8603C370.407 17.1771 352 16.7175 345 16.8842Z" fill="white" fill-opacity="0.08"/>
<path d="M519 16.8842V82.8842H693V16.8842C679 17.3842 669 18.032 652 10.8603C616.5 -4.1158 594.5 -3.11585 560 10.8603C544.407 17.1771 526 16.7175 519 16.8842Z" fill="white" fill-opacity="0.08"/>
<path d="M693 16.8842V82.8842H867V16.8842C853 17.3842 843 18.032 826 10.8603C790.5 -4.1158 768.5 -3.11585 734 10.8603C718.407 17.1771 700 16.7175 693 16.8842Z" fill="white" fill-opacity="0.08"/>
<path d="M867 16.8842V82.8842H1041V16.8842C1027 17.3842 1017 18.032 1000 10.8603C964.5 -4.1158 942.5 -3.11585 908 10.8603C892.407 17.1771 874 16.7175 867 16.8842Z" fill="white" fill-opacity="0.08"/>
<path d="M1041 16.8842V82.8842H1215V16.8842C1201 17.3842 1191 18.032 1174 10.8603C1138.5 -4.1158 1116.5 -3.11585 1082 10.8603C1066.41 17.1771 1048 16.7175 1041 16.8842Z" fill="white" fill-opacity="0.08"/>
<path d="M1215 16.8842V82.8842H1389V16.8842C1375 17.3842 1365 18.032 1348 10.8603C1312.5 -4.1158 1290.5 -3.11585 1256 10.8603C1240.41 17.1771 1222 16.7175 1215 16.8842Z" fill="white" fill-opacity="0.08"/>
<path d="M1389 16.8842V82.8842H1563V16.8842C1549 17.3842 1539 18.032 1522 10.8603C1486.5 -4.1158 1464.5 -3.11585 1430 10.8603C1414.41 17.1771 1396 16.7175 1389 16.8842Z" fill="white" fill-opacity="0.08"/>
</svg>
