<svg width="1440" height="74" viewBox="0 0 1440 74" fill="none" xmlns="http://www.w3.org/2000/svg">
<path d="M-90 16.8842V82.8842H84V16.8842C70 17.3842 60 18.032 43 10.8603C7.50001 -4.1158 -14.5 -3.11585 -49 10.8603C-64.5929 17.1771 -83 16.7175 -90 16.8842Z" fill="white" fill-opacity="0.08"/>
<path d="M84 16.8842V82.8842H258V16.8842C244 17.3842 234 18.032 217 10.8603C181.5 -4.1158 159.5 -3.11585 125 10.8603C109.407 17.1771 91 16.7175 84 16.8842Z" fill="white" fill-opacity="0.08"/>
<path d="M258 16.8842V82.8842H432V16.8842C418 17.3842 408 18.032 391 10.8603C355.5 -4.1158 333.5 -3.11585 299 10.8603C283.407 17.1771 265 16.7175 258 16.8842Z" fill="white" fill-opacity="0.08"/>
<path d="M432 16.8842V82.8842H606V16.8842C592 17.3842 582 18.032 565 10.8603C529.5 -4.1158 507.5 -3.11585 473 10.8603C457.407 17.1771 439 16.7175 432 16.8842Z" fill="white" fill-opacity="0.08"/>
<path d="M606 16.8842V82.8842H780V16.8842C766 17.3842 756 18.032 739 10.8603C703.5 -4.1158 681.5 -3.11585 647 10.8603C631.407 17.1771 613 16.7175 606 16.8842Z" fill="white" fill-opacity="0.08"/>
<path d="M780 16.8842V82.8842H954V16.8842C940 17.3842 930 18.032 913 10.8603C877.5 -4.1158 855.5 -3.11585 821 10.8603C805.407 17.1771 787 16.7175 780 16.8842Z" fill="white" fill-opacity="0.08"/>
<path d="M954 16.8842V82.8842H1128V16.8842C1114 17.3842 1104 18.032 1087 10.8603C1051.5 -4.1158 1029.5 -3.11585 995 10.8603C979.407 17.1771 961 16.7175 954 16.8842Z" fill="white" fill-opacity="0.08"/>
<path d="M1128 16.8842V82.8842H1302V16.8842C1288 17.3842 1278 18.032 1261 10.8603C1225.5 -4.1158 1203.5 -3.11585 1169 10.8603C1153.41 17.1771 1135 16.7175 1128 16.8842Z" fill="white" fill-opacity="0.08"/>
<path d="M1302 16.8842V82.8842H1476V16.8842C1462 17.3842 1452 18.032 1435 10.8603C1399.5 -4.1158 1377.5 -3.11585 1343 10.8603C1327.41 17.1771 1309 16.7175 1302 16.8842Z" fill="white" fill-opacity="0.08"/>
</svg>
