<svg width="26" height="26" viewBox="0 0 26 26" fill="none" xmlns="http://www.w3.org/2000/svg">
<g clip-path="url(#clip0_317_4074)">
<path d="M12.9998 0.8125C7.67793 0.8125 3.16855 4.225 1.50293 8.9375H24.4967C22.8311 4.225 18.3217 0.8125 12.9998 0.8125Z" fill="#ED4C5C"/>
<path d="M12.9998 25.1875C18.3217 25.1875 22.8311 21.8156 24.4967 17.0625H1.50293C3.16855 21.8156 7.67793 25.1875 12.9998 25.1875Z" fill="#428BC1"/>
<path d="M1.50313 8.9375C1.05625 10.1969 0.8125 11.5781 0.8125 13C0.8125 14.4219 1.05625 15.8031 1.50313 17.0625H24.4969C24.9438 15.8031 25.1875 14.4219 25.1875 13C25.1875 11.5781 24.9438 10.1969 24.4969 8.9375H1.50313Z" fill="#F9F9F9"/>
<path d="M17.4281 10.2375L18.4844 7.8L17.6719 6.5L16.3313 6.9875L15.3969 5.89062L14.1375 6.62187L13 5.6875L11.8625 6.62187L10.6031 5.89062L9.66875 6.9875L8.32812 6.5L7.51562 7.84062L8.57188 10.2781C9.9125 9.66875 11.4156 9.34375 13 9.34375C14.5844 9.2625 16.0875 9.62812 17.4281 10.2375Z" fill="white"/>
<path d="M14.0971 6.70314L13.0002 5.80939L11.9033 6.70314L12.1064 9.22189C12.3908 9.18126 12.7158 9.18126 13.0002 9.18126C13.2846 9.18126 13.6096 9.18126 13.8939 9.22189L14.0971 6.70314Z" fill="#428BC1"/>
<path d="M12.9998 20.3125C15.5186 20.3125 17.5904 18.2406 17.5904 15.7219V10.2781H8.40918V15.7219C8.40918 18.2406 10.4811 20.3125 12.9998 20.3125Z" fill="#ED4C5C"/>
<path d="M13.0001 20.2312C15.4782 20.2312 17.5095 18.2 17.5095 15.7219V10.3594H8.49072V15.7219C8.49072 18.2 10.522 20.2312 13.0001 20.2312Z" fill="white"/>
<path d="M10.4002 10.5219H8.65332V12.4313H10.4002V10.5219Z" fill="#ED4C5C"/>
<path d="M10.4004 14.3406H12.1473V12.4312H10.4004V14.3406Z" fill="#ED4C5C"/>
<path d="M8.65332 15.7219C8.65332 15.8844 8.65332 16.0469 8.69395 16.25H10.4002V14.3406H8.65332V15.7219Z" fill="#ED4C5C"/>
<path d="M13.8533 14.3406H12.1064V16.25H13.8533V14.3406Z" fill="#ED4C5C"/>
<path d="M13.8535 18.1594H15.6004V16.25H13.8535V18.1594Z" fill="#ED4C5C"/>
<path d="M15.6001 19.175C15.9657 18.8906 16.3313 18.525 16.5751 18.1187H15.6001V19.175Z" fill="#ED4C5C"/>
<path d="M10.4004 18.1594H12.1473V16.25H10.4004V18.1594Z" fill="#ED4C5C"/>
<path d="M9.42529 18.1594C9.70967 18.5656 10.0347 18.8906 10.4003 19.2156V18.1594H9.42529Z" fill="#ED4C5C"/>
<path d="M13.2846 20.0281C13.4877 20.0281 13.6502 19.9875 13.8533 19.9469V18.1187H12.1064V19.9469C12.3096 19.9875 12.4721 20.0281 12.6752 20.0281C12.8783 20.0687 13.0814 20.0687 13.2846 20.0281Z" fill="#ED4C5C"/>
<path d="M17.3063 16.25C17.3063 16.0875 17.347 15.925 17.347 15.7219V14.3406H15.6001V16.25H17.3063Z" fill="#ED4C5C"/>
<path d="M13.8535 14.3406H15.6004V12.4312H13.8535V14.3406Z" fill="#ED4C5C"/>
<path d="M13.8533 10.5219H12.1064V12.4313H13.8533V10.5219Z" fill="#ED4C5C"/>
<path d="M17.3064 12.4313V10.5219H15.5596V12.4313H17.3064Z" fill="#ED4C5C"/>
<path d="M9.70918 7.06874L8.36855 6.58124L7.59668 7.79999L7.88105 8.44999L8.6123 10.1156C9.14043 9.87186 9.70918 9.66874 10.3186 9.54686L9.70918 7.06874Z" fill="#428BC1"/>
<path d="M9.62793 8.28751C9.66855 8.36876 9.70918 8.49063 9.70918 8.61251C9.70918 8.97813 9.4248 9.26251 9.05918 9.26251C8.73418 9.26251 8.49043 9.01876 8.40918 8.73438C8.53105 8.93751 8.73418 9.05938 8.97793 9.05938C9.34355 9.05938 9.62793 8.77501 9.62793 8.40938V8.28751Z" fill="white"/>
<path d="M9.01875 7.39376L8.97813 7.63751L9.18125 7.75938V7.80001H9.14062L8.9375 7.88126L8.89687 8.08438V8.12501L8.85625 8.08438L8.69375 7.96251L8.45 8.04376V8.00313L8.49062 7.80001L8.32812 7.63751V7.59688L8.57188 7.51563L8.6125 7.31251L8.775 7.43438L9.01875 7.39376Z" fill="#FFE62E"/>
<path d="M11.9032 6.70314L10.6438 6.01251L9.70947 7.06876L10.3188 9.50626C10.8876 9.34376 11.497 9.26251 12.1063 9.22189L11.9032 6.70314Z" fill="#2A5F9E"/>
<path d="M10.1562 8.89687C10.7655 8.73437 11.3749 8.65313 12.0249 8.57188L11.9843 7.92188C11.2937 7.9625 10.6437 8.08437 9.99365 8.24687L10.1562 8.89687Z" fill="#ED4C5C"/>
<path d="M9.87197 7.67812C10.5626 7.51562 11.2532 7.39375 11.9438 7.3125L11.9032 6.70312C11.172 6.78437 10.4407 6.90625 9.70947 7.06875L9.87197 7.67812Z" fill="#ED4C5C"/>
<path d="M13.0004 7.84064C12.9191 7.84064 12.7973 8.12501 12.6348 7.92189C12.6348 7.92189 12.7566 8.08439 12.7566 8.16564L12.6348 8.12501C12.6348 8.97814 13.4066 8.93751 13.4066 8.12501L13.2848 8.16564C13.2848 8.12501 13.4066 7.92189 13.4066 7.92189C13.2035 8.12501 13.1223 7.88126 13.0004 7.84064Z" fill="#FFE62E"/>
<path d="M13.4877 6.66251C13.4064 6.66251 13.2846 6.94688 13.1221 6.74376C13.1221 6.74376 13.2439 6.90626 13.2439 6.98751L13.1221 6.94688C13.1221 7.80001 13.8939 7.75938 13.8939 6.94688L13.7721 6.98751C13.7721 6.94688 13.8939 6.74376 13.8939 6.74376C13.7314 6.94688 13.6096 6.66251 13.4877 6.66251Z" fill="#FFE62E"/>
<path d="M12.4721 6.66251C12.3908 6.66251 12.2689 6.94688 12.1064 6.74376C12.1064 6.74376 12.2283 6.90626 12.2283 6.98751L12.1064 6.94688C12.1064 7.80001 12.8783 7.75938 12.8783 6.94688L12.7564 6.98751C12.7564 6.94688 12.8783 6.74376 12.8783 6.74376C12.7158 6.94688 12.5939 6.66251 12.4721 6.66251Z" fill="#FFE62E"/>
<path d="M16.2904 7.06874L15.3561 5.97186L14.0967 6.70311L13.8936 9.22186C14.5029 9.26249 15.1123 9.38436 15.6811 9.50624L16.2904 7.06874Z" fill="#2A5F9E"/>
<path d="M14.3404 7.23124H14.4623C14.5435 7.27187 14.5435 7.23124 14.5842 7.19062C14.6654 7.14999 14.9092 7.10937 15.1529 7.23124C15.1935 7.27187 15.4373 7.27187 15.4373 7.27187C15.4373 7.27187 15.2342 7.35312 15.031 7.27187C15.1123 7.31249 15.1529 7.39374 15.2342 7.43437C15.2748 7.43437 15.5592 7.51562 15.5592 7.51562C15.5592 7.51562 15.3154 7.63749 15.1529 7.51562C15.031 7.39374 14.9092 7.27187 14.706 7.31249L14.8279 7.35312C14.7873 7.39374 14.6654 7.43437 14.6248 7.39374C14.6248 7.51562 15.031 7.92187 15.5185 7.79999C15.7217 7.71874 15.5998 7.88124 15.5592 7.96249C15.5185 8.00312 15.356 8.89687 14.9092 8.69374C14.9092 8.69374 15.1529 8.61249 15.1529 8.44999L15.0717 8.36874C14.9092 8.36874 14.7873 8.85624 14.5842 8.61249C14.5842 8.61249 14.8279 8.49062 14.7873 8.28749H14.6248C14.5029 8.32812 14.5435 8.77499 14.2998 8.65312C14.2998 8.65312 14.5842 8.24687 14.4217 8.24687C14.381 8.32812 14.2998 8.40937 14.2998 8.49062C14.381 8.57187 14.0967 8.57187 14.1373 8.49062C14.1373 8.44999 14.3404 8.24687 14.2998 8.04374C14.2185 8.00312 14.2998 7.63749 14.3404 7.55624C14.0967 7.55624 14.2592 7.47499 14.2998 7.31249C14.381 7.31249 14.3404 7.31249 14.3404 7.23124Z" fill="#FFE62E"/>
<path d="M17.3874 10.1156L18.403 7.79999L17.6312 6.58124L16.2905 7.06874L15.6812 9.50624C16.2499 9.66874 16.8187 9.87186 17.3874 10.1156Z" fill="#428BC1"/>
<path d="M16.0875 7.96249C16.7781 8.12499 17.4281 8.36874 18.0375 8.65312L17.6313 9.54687C17.0625 9.30312 16.4531 9.09999 15.8438 8.93749L16.0875 7.96249Z" fill="white"/>
<path d="M17.6719 9.38438L17.9156 8.775C17.3062 8.49063 16.6563 8.2875 16.0063 8.125L15.8438 8.73438C16.4938 8.89688 17.1031 9.1 17.6719 9.38438Z" fill="#ED4C5C"/>
<path d="M17.0623 7.06874L17.1029 7.31249L16.9404 7.47499L17.1842 7.55624L17.2248 7.79999L17.4279 7.63749L17.6717 7.71874L17.6311 7.47499L17.7936 7.31249L17.5498 7.23124L17.5092 6.98749L17.3467 7.14999L17.0623 7.06874Z" fill="#FFE62E"/>
</g>
<defs>
<clipPath id="clip0_317_4074">
<rect width="26" height="26" fill="white"/>
</clipPath>
</defs>
</svg>
