<svg width="26" height="26" viewBox="0 0 26 26" fill="none" xmlns="http://www.w3.org/2000/svg">
<circle cx="13" cy="13" r="13" fill="#DC4437"/>
<path d="M17.48 10.1L18.26 11.76L19.98 12.02L18.74 13.3L19.02 15.1L17.48 14.26L15.94 15.1L16.24 13.3L14.98 12.02L16.72 11.76L17.48 10.1Z" fill="white"/>
<path d="M17.12 8.36C17.12 8.36 17.08 8.36 17.02 8.34C16.96 8.32 16.86 8.3 16.76 8.26C16.64 8.22 16.5 8.16 16.34 8.14C16.26 8.12 16.18 8.12 16.08 8.1C16 8.08 15.92 8.06 15.8 8.06C15.4 8 14.94 7.94 14.44 7.98C13.94 8 13.42 8.08 12.9 8.24C12.84 8.26 12.78 8.28 12.7 8.3H12.68C12.66 8.3 12.86 8.3 12.76 8.3H12.74L12.68 8.32L12.58 8.34C12.48 8.36 12.4 8.4 12.3 8.42L12.16 8.46C12.12 8.48 12.12 8.5 12.08 8.5C12.04 8.54 11.98 8.56 11.94 8.58L11.88 8.62L11.84 8.64L11.8 8.66C11.68 8.74 11.56 8.8 11.46 8.88C11.02 9.18 10.62 9.54 10.3 9.96L10.18 10.12C10.16 10.14 10.14 10.18 10.12 10.2C10.16 10.16 10.02 10.3 10.2 10.1L10.18 10.12V10.18L10.12 10.24L9.92 10.52C9.82 10.64 9.84 10.66 9.82 10.7C9.8 10.74 9.8 10.78 9.78 10.8C9.78 10.82 9.76 10.86 9.74 10.88L9.72 10.98L9.64 11.14C9.62 11.2 9.6 11.26 9.58 11.32C9.48 11.56 9.46 11.8 9.4 12.04C9.38 12.16 9.38 12.28 9.34 12.4C9.34 12.46 9.34 12.52 9.34 12.58V12.68V12.72V12.74V12.76C9.34 12.7 9.34 12.92 9.34 12.62L9.36 12.98V13.16V13.24C9.36 13.26 9.36 13.28 9.36 13.28V13.3C9.38 13.34 9.38 13.36 9.38 13.4C9.38 13.44 9.38 13.46 9.4 13.52C9.46 13.76 9.48 14 9.58 14.24C9.6 14.3 9.62 14.36 9.64 14.42C9.66 14.48 9.7 14.54 9.72 14.6C9.74 14.66 9.76 14.72 9.8 14.78L9.9 14.94C9.96 15.06 10.04 15.16 10.1 15.26L10.12 15.3L10.14 15.32V15.34C9.96 15.16 10.1 15.3 10.06 15.26L10.16 15.38C10.24 15.46 10.3 15.56 10.38 15.64L10.46 15.74L10.5 15.78C10.52 15.82 10.56 15.84 10.58 15.88C10.58 15.9 10.62 15.92 10.64 15.94C10.66 15.96 10.68 15.98 10.72 16L10.86 16.14C10.96 16.22 11.06 16.32 11.16 16.4C11.26 16.48 11.38 16.54 11.48 16.64C11.92 16.94 12.44 17.16 12.94 17.32C13.12 17.36 13.32 17.4 13.4 17.42C13.5 17.44 13.6 17.48 13.72 17.5C13.86 17.52 13.98 17.54 14.1 17.54C14.22 17.56 14.34 17.56 14.48 17.56C14.98 17.58 15.44 17.52 15.84 17.48C15.94 17.46 16.02 17.44 16.12 17.42C16.22 17.4 16.3 17.38 16.38 17.36C16.54 17.34 16.68 17.28 16.78 17.26C16.88 17.22 16.98 17.2 17.04 17.18C17.1 17.16 17.14 17.16 17.14 17.16L17.32 17.1L17.5 17.28L17.38 17.4C17.38 17.4 17.3 17.48 17.12 17.64C16.96 17.8 16.7 18.02 16.36 18.26C16 18.5 15.56 18.76 15 18.98C14.72 19.1 14.42 19.18 14.1 19.26C13.76 19.32 13.4 19.4 13.06 19.4C12.32 19.44 11.52 19.38 10.7 19.12C9.88 18.88 9.08 18.46 8.36 17.84C7.66 17.26 7.04 16.48 6.64 15.6C6.42 15.16 6.28 14.68 6.16 14.2C6.1 13.96 6.08 13.7 6.04 13.46C6.02 13.22 6.02 12.98 6 12.74C6 12.7 6 12.72 6 12.72V12.7V12.68V12.64V12.54L6.02 12.36C6.02 12.24 6.02 12.12 6.04 11.98C6.08 11.74 6.1 11.48 6.16 11.24C6.28 10.76 6.42 10.28 6.64 9.84L6.8 9.52C6.86 9.42 6.92 9.32 6.98 9.2C7.04 9.1 7.1 9 7.18 8.9L7.4 8.6C7.54 8.4 7.7 8.24 7.86 8.08L7.98 7.94L8.12 7.82C8.2 7.74 8.3 7.66 8.38 7.58C9.08 6.98 9.9 6.56 10.72 6.3C10.92 6.24 11.12 6.2 11.32 6.14C11.52 6.1 11.74 6.08 11.94 6.04L12.1 6.02H12.24C12.34 6.02 12.42 6.02 12.52 6H12.66H12.72H12.74H12.76H12.8C12.9 6 12.98 6.02 13.08 6.02C13.44 6.02 13.8 6.1 14.12 6.16C14.44 6.26 14.76 6.32 15.02 6.44C15.58 6.64 16.02 6.92 16.38 7.16C16.72 7.42 17 7.62 17.14 7.78C17.3 7.94 17.38 8.02 17.38 8.02L17.5 8.14L17.34 8.32L17.12 8.36Z" fill="white"/>
</svg>
