<svg width="14" height="15" viewBox="0 0 14 15" fill="none" xmlns="http://www.w3.org/2000/svg">
<path d="M6.99325 0.833332C3.31325 0.833332 0.333252 3.82 0.333252 7.5C0.333252 11.18 3.31325 14.1667 6.99325 14.1667C10.6799 14.1667 13.6666 11.18 13.6666 7.5C13.6666 3.82 10.6799 0.833332 6.99325 0.833332ZM11.6133 4.83333H9.64659C9.43325 4 9.12659 3.2 8.72659 2.46C9.95325 2.88 10.9733 3.73333 11.6133 4.83333ZM6.99992 2.19333C7.55325 2.99333 7.98659 3.88 8.27325 4.83333H5.72659C6.01325 3.88 6.44659 2.99333 6.99992 2.19333ZM1.83992 8.83333C1.73325 8.40667 1.66659 7.96 1.66659 7.5C1.66659 7.04 1.73325 6.59333 1.83992 6.16667H4.09325C4.03992 6.60667 3.99992 7.04667 3.99992 7.5C3.99992 7.95333 4.03992 8.39333 4.09325 8.83333H1.83992ZM2.38659 10.1667H4.35325C4.56659 11 4.87325 11.8 5.27325 12.54C4.04659 12.12 3.02659 11.2733 2.38659 10.1667ZM4.35325 4.83333H2.38659C3.02659 3.72667 4.04659 2.88 5.27325 2.46C4.87325 3.2 4.56659 4 4.35325 4.83333ZM6.99992 12.8067C6.44659 12.0067 6.01325 11.12 5.72659 10.1667H8.27325C7.98659 11.12 7.55325 12.0067 6.99992 12.8067ZM8.55992 8.83333H5.43992C5.37992 8.39333 5.33325 7.95333 5.33325 7.5C5.33325 7.04667 5.37992 6.6 5.43992 6.16667H8.55992C8.61992 6.6 8.66659 7.04667 8.66659 7.5C8.66659 7.95333 8.61992 8.39333 8.55992 8.83333ZM8.72659 12.54C9.12659 11.8 9.43325 11 9.64659 10.1667H11.6133C10.9733 11.2667 9.95325 12.12 8.72659 12.54ZM9.90659 8.83333C9.95992 8.39333 9.99992 7.95333 9.99992 7.5C9.99992 7.04667 9.95992 6.60667 9.90659 6.16667H12.1599C12.2666 6.59333 12.3333 7.04 12.3333 7.5C12.3333 7.96 12.2666 8.40667 12.1599 8.83333H9.90659Z" fill="#6D6D6D"/>
</svg>
