<svg width="16" height="16" viewBox="0 0 16 16" fill="none" xmlns="http://www.w3.org/2000/svg">
<path d="M2.66667 9.33333L2 8H14L13.3333 9.33333M9.33333 8H3.33333L9.33333 1.33333V8ZM9.33333 8H12.6667L9.33333 3.66667V8Z" stroke="#005292" stroke-miterlimit="2" stroke-linecap="round" stroke-linejoin="round"/>
<path d="M1.3335 11.3333L2.16683 11.7837C2.70016 12.072 3.30016 12.072 3.8335 11.7837C4.36683 11.4957 4.96683 11.4957 5.50016 11.7837C6.0335 12.072 6.6335 12.072 7.16683 11.7837C7.70016 11.4957 8.30016 11.4957 8.8335 11.7837C9.36683 12.072 9.96683 12.072 10.5002 11.7837C11.0335 11.4957 11.6335 11.4957 12.1668 11.7837C12.7002 12.072 13.3002 12.072 13.8335 11.7837L14.6668 11.3333M1.3335 13.3333L2.16683 13.7837C2.70016 14.072 3.30016 14.072 3.8335 13.7837C4.36683 13.4957 4.96683 13.4957 5.50016 13.7837C6.0335 14.072 6.6335 14.072 7.16683 13.7837C7.70016 13.4957 8.30016 13.4957 8.8335 13.7837C9.36683 14.072 9.96683 14.072 10.5002 13.7837C11.0335 13.4957 11.6335 13.4957 12.1668 13.7837C12.7002 14.072 13.3002 14.072 13.8335 13.7837L14.6668 13.3333" stroke="#005292" stroke-miterlimit="2" stroke-linecap="round" stroke-linejoin="round"/>
</svg>
