<svg width="122" height="116" viewBox="0 0 122 116" fill="none" xmlns="http://www.w3.org/2000/svg">
<ellipse opacity="0.2" cx="61" cy="58.2327" rx="60.0653" ry="57.7327" fill="#008000"/>
<ellipse opacity="0.3" cx="61.5832" cy="58.233" rx="45.4864" ry="43.7369" fill="#008000"/>
<path d="M88.1666 56.0625V58.5159C88.1634 64.2663 86.3013 69.8617 82.8581 74.4673C79.4152 79.0732 74.5754 82.4425 69.061 84.0729C63.5464 85.7033 57.6528 85.5076 52.2586 83.5148C46.8645 81.522 42.259 77.8388 39.1292 73.0148C35.9994 68.1908 34.5127 62.4841 34.8911 56.746C35.2695 51.0081 37.4925 45.5461 41.2287 41.1748C44.9649 36.8034 50.0141 33.7569 55.6231 32.4896C61.2322 31.2223 67.1008 31.8021 72.3533 34.1426M88.1666 37.1673L61.5 63.8607L53.5 55.8607" stroke="#008000" stroke-width="5" stroke-linecap="round" stroke-linejoin="round"/>
</svg>
